<svg width="92" height="26" viewBox="0 0 92 26" fill="none" xmlns="http://www.w3.org/2000/svg">
<path opacity="0.6" d="M0 13C0 5.8203 5.8203 0 13 0H79C86.1797 0 92 5.8203 92 13V13C92 20.1797 86.1797 26 79 26H13C5.8203 26 0 20.1797 0 13V13Z" fill="url(#paint0_linear_0_1)"/>
<rect x="1" y="1" width="90" height="24" rx="12" fill="#270B34"/>
<path d="M16.6367 10.6992H15.1758C15.1341 10.4596 15.0573 10.2474 14.9453 10.0625C14.8333 9.875 14.694 9.71615 14.5273 9.58594C14.3607 9.45573 14.1706 9.35807 13.957 9.29297C13.7461 9.22526 13.5182 9.19141 13.2734 9.19141C12.8385 9.19141 12.4531 9.30078 12.1172 9.51953C11.7813 9.73568 11.5182 10.0534 11.3281 10.4727C11.138 10.8893 11.043 11.3984 11.043 12C11.043 12.612 11.138 13.1276 11.3281 13.5469C11.5208 13.9635 11.7839 14.2786 12.1172 14.4922C12.4531 14.7031 12.8372 14.8086 13.2695 14.8086C13.5091 14.8086 13.7331 14.7773 13.9414 14.7148C14.1523 14.6497 14.3411 14.5547 14.5078 14.4297C14.6771 14.3047 14.819 14.151 14.9336 13.9687C15.0508 13.7865 15.1315 13.5781 15.1758 13.3437L16.6367 13.3516C16.582 13.7318 16.4635 14.0885 16.2812 14.4219C16.1016 14.7552 15.8659 15.0495 15.5742 15.3047C15.2826 15.5573 14.9414 15.7552 14.5508 15.8984C14.1602 16.0391 13.7266 16.1094 13.25 16.1094C12.5469 16.1094 11.9193 15.9466 11.3672 15.6211C10.8151 15.2956 10.3802 14.8255 10.0625 14.2109C9.74479 13.5964 9.58594 12.8594 9.58594 12C9.58594 11.138 9.74609 10.401 10.0664 9.78906C10.3867 9.17448 10.8229 8.70443 11.375 8.37891C11.9271 8.05339 12.5521 7.89062 13.25 7.89062C13.6953 7.89062 14.1094 7.95312 14.4922 8.07812C14.875 8.20312 15.2161 8.38672 15.5156 8.62891C15.8151 8.86849 16.0612 9.16276 16.2539 9.51172C16.4492 9.85807 16.5768 10.2539 16.6367 10.6992ZM20.5186 16.1172C19.9326 16.1172 19.4248 15.9883 18.9951 15.7305C18.5654 15.4727 18.2321 15.112 17.9951 14.6484C17.7607 14.1849 17.6436 13.6432 17.6436 13.0234C17.6436 12.4036 17.7607 11.8607 17.9951 11.3945C18.2321 10.9284 18.5654 10.5664 18.9951 10.3086C19.4248 10.0508 19.9326 9.92188 20.5186 9.92188C21.1045 9.92188 21.6123 10.0508 22.042 10.3086C22.4717 10.5664 22.8037 10.9284 23.0381 11.3945C23.2751 11.8607 23.3936 12.4036 23.3936 13.0234C23.3936 13.6432 23.2751 14.1849 23.0381 14.6484C22.8037 15.112 22.4717 15.4727 22.042 15.7305C21.6123 15.9883 21.1045 16.1172 20.5186 16.1172ZM20.5264 14.9844C20.8441 14.9844 21.1097 14.8971 21.3232 14.7227C21.5368 14.5456 21.6956 14.3086 21.7998 14.0117C21.9066 13.7148 21.96 13.3841 21.96 13.0195C21.96 12.6523 21.9066 12.3203 21.7998 12.0234C21.6956 11.724 21.5368 11.4857 21.3232 11.3086C21.1097 11.1315 20.8441 11.043 20.5264 11.043C20.2008 11.043 19.93 11.1315 19.7139 11.3086C19.5003 11.4857 19.3402 11.724 19.2334 12.0234C19.1292 12.3203 19.0771 12.6523 19.0771 13.0195C19.0771 13.3841 19.1292 13.7148 19.2334 14.0117C19.3402 14.3086 19.5003 14.5456 19.7139 14.7227C19.93 14.8971 20.2008 14.9844 20.5264 14.9844ZM24.5938 16V10H25.9453V11.0195H26.0156C26.1406 10.6758 26.3477 10.4076 26.6367 10.2148C26.9258 10.0195 27.2708 9.92188 27.6719 9.92188C28.0781 9.92188 28.4206 10.0208 28.6992 10.2187C28.9805 10.4141 29.1784 10.681 29.293 11.0195H29.3555C29.4883 10.6862 29.7122 10.4206 30.0273 10.2227C30.3451 10.0221 30.7214 9.92188 31.1563 9.92188C31.7083 9.92188 32.1589 10.0964 32.5078 10.4453C32.8568 10.7943 33.0313 11.3034 33.0313 11.9727V16H31.6133V12.1914C31.6133 11.819 31.5143 11.5469 31.3164 11.375C31.1185 11.2005 30.8763 11.1133 30.5898 11.1133C30.2487 11.1133 29.9818 11.2201 29.7891 11.4336C29.599 11.6445 29.5039 11.9193 29.5039 12.2578V16H28.1172V12.1328C28.1172 11.8229 28.0234 11.5755 27.8359 11.3906C27.651 11.2057 27.4089 11.1133 27.1094 11.1133C26.9063 11.1133 26.7214 11.1654 26.5547 11.2695C26.388 11.3711 26.2552 11.5156 26.1563 11.7031C26.0573 11.888 26.0078 12.1042 26.0078 12.3516V16H24.5938ZM34.4658 16V10H35.8799V16H34.4658ZM35.1768 9.14844C34.9528 9.14844 34.7601 9.07422 34.5986 8.92578C34.4372 8.77474 34.3564 8.59375 34.3564 8.38281C34.3564 8.16927 34.4372 7.98828 34.5986 7.83984C34.7601 7.6888 34.9528 7.61328 35.1768 7.61328C35.4033 7.61328 35.596 7.6888 35.7549 7.83984C35.9163 7.98828 35.9971 8.16927 35.9971 8.38281C35.9971 8.59375 35.9163 8.77474 35.7549 8.92578C35.596 9.07422 35.4033 9.14844 35.1768 9.14844ZM38.748 12.4844V16H37.334V10H38.6855V11.0195H38.7559C38.8939 10.6836 39.1139 10.4167 39.416 10.2187C39.7207 10.0208 40.097 9.92188 40.5449 9.92188C40.959 9.92188 41.3197 10.0104 41.627 10.1875C41.9368 10.3646 42.1764 10.6211 42.3457 10.957C42.5176 11.293 42.6022 11.7005 42.5996 12.1797V16H41.1855V12.3984C41.1855 11.9974 41.0814 11.6836 40.873 11.457C40.6673 11.2305 40.3822 11.1172 40.0176 11.1172C39.7702 11.1172 39.5501 11.1719 39.3574 11.2812C39.1673 11.388 39.0176 11.543 38.9082 11.7461C38.8014 11.9492 38.748 12.1953 38.748 12.4844ZM46.6465 18.375C46.1387 18.375 45.7025 18.306 45.3379 18.168C44.9733 18.0326 44.6803 17.8503 44.459 17.6211C44.2376 17.3919 44.084 17.138 43.998 16.8594L45.2715 16.5508C45.3288 16.668 45.4121 16.7839 45.5215 16.8984C45.6309 17.0156 45.778 17.112 45.9629 17.1875C46.1504 17.2656 46.3861 17.3047 46.6699 17.3047C47.071 17.3047 47.403 17.207 47.666 17.0117C47.929 16.819 48.0605 16.5013 48.0605 16.0586V14.9219H47.9902C47.9173 15.0677 47.8105 15.2174 47.6699 15.3711C47.5319 15.5247 47.3483 15.6536 47.1191 15.7578C46.8926 15.862 46.6074 15.9141 46.2637 15.9141C45.8027 15.9141 45.3848 15.806 45.0098 15.5898C44.6374 15.3711 44.3405 15.0456 44.1191 14.6133C43.9004 14.1784 43.791 13.6341 43.791 12.9805C43.791 12.3216 43.9004 11.7656 44.1191 11.3125C44.3405 10.8568 44.6387 10.5117 45.0137 10.2773C45.3887 10.0404 45.8066 9.92188 46.2676 9.92188C46.6191 9.92188 46.9082 9.98177 47.1348 10.1016C47.3639 10.2187 47.5462 10.3607 47.6816 10.5273C47.8171 10.6914 47.9199 10.8464 47.9902 10.9922H48.0684V10H49.4629V16.0977C49.4629 16.6107 49.3405 17.0352 49.0957 17.3711C48.8509 17.707 48.5163 17.9583 48.0918 18.125C47.6673 18.2917 47.1855 18.375 46.6465 18.375ZM46.6582 14.8047C46.9577 14.8047 47.2129 14.7318 47.4238 14.5859C47.6348 14.4401 47.7949 14.2305 47.9043 13.957C48.0137 13.6836 48.0684 13.3555 48.0684 12.9727C48.0684 12.5951 48.0137 12.2643 47.9043 11.9805C47.7975 11.6966 47.6387 11.4766 47.4277 11.3203C47.2194 11.1615 46.9629 11.082 46.6582 11.082C46.3431 11.082 46.0801 11.1641 45.8691 11.3281C45.6582 11.4922 45.4993 11.7174 45.3926 12.0039C45.2858 12.2878 45.2324 12.6107 45.2324 12.9727C45.2324 13.3398 45.2858 13.6615 45.3926 13.9375C45.502 14.2109 45.6621 14.4245 45.873 14.5781C46.0866 14.7292 46.3483 14.8047 46.6582 14.8047ZM58.0508 10.1992C58.0143 9.85807 57.8607 9.59245 57.5898 9.40234C57.3216 9.21224 56.9727 9.11719 56.543 9.11719C56.2409 9.11719 55.9818 9.16276 55.7656 9.25391C55.5495 9.34505 55.3841 9.46875 55.2695 9.625C55.1549 9.78125 55.0964 9.95964 55.0938 10.1602C55.0938 10.3268 55.1315 10.4714 55.207 10.5937C55.2852 10.7161 55.3906 10.8203 55.5234 10.9062C55.6563 10.9896 55.8034 11.0599 55.9648 11.1172C56.1263 11.1745 56.2891 11.2227 56.4531 11.2617L57.2031 11.4492C57.5052 11.5195 57.7956 11.6146 58.0742 11.7344C58.3555 11.8542 58.6068 12.0052 58.8281 12.1875C59.0521 12.3698 59.2292 12.5898 59.3594 12.8477C59.4896 13.1055 59.5547 13.4076 59.5547 13.7539C59.5547 14.2227 59.4349 14.6354 59.1953 14.9922C58.9557 15.3464 58.6094 15.6237 58.1562 15.8242C57.7057 16.0221 57.1602 16.1211 56.5195 16.1211C55.8971 16.1211 55.3568 16.0247 54.8984 15.832C54.4427 15.6393 54.0859 15.3581 53.8281 14.9883C53.5729 14.6185 53.4349 14.168 53.4141 13.6367H54.8398C54.8607 13.9154 54.9466 14.1471 55.0977 14.332C55.2487 14.5169 55.4453 14.6549 55.6875 14.7461C55.9323 14.8372 56.2057 14.8828 56.5078 14.8828C56.8229 14.8828 57.099 14.8359 57.3359 14.7422C57.5755 14.6458 57.763 14.513 57.8984 14.3437C58.0339 14.1719 58.1029 13.9714 58.1055 13.7422C58.1029 13.5339 58.0417 13.362 57.9219 13.2266C57.8021 13.0885 57.6341 12.974 57.418 12.8828C57.2044 12.7891 56.9544 12.7057 56.668 12.6328L55.7578 12.3984C55.099 12.2292 54.5781 11.9727 54.1953 11.6289C53.8151 11.2826 53.625 10.8229 53.625 10.25C53.625 9.77865 53.7526 9.36589 54.0078 9.01172C54.2656 8.65755 54.6159 8.38281 55.0586 8.1875C55.5013 7.98958 56.0026 7.89062 56.5625 7.89062C57.1302 7.89062 57.6276 7.98958 58.0547 8.1875C58.4844 8.38281 58.8216 8.65495 59.0664 9.00391C59.3112 9.35026 59.4375 9.7487 59.4453 10.1992H58.0508ZM63.4014 16.1172C62.8154 16.1172 62.3076 15.9883 61.8779 15.7305C61.4482 15.4727 61.1149 15.112 60.8779 14.6484C60.6436 14.1849 60.5264 13.6432 60.5264 13.0234C60.5264 12.4036 60.6436 11.8607 60.8779 11.3945C61.1149 10.9284 61.4482 10.5664 61.8779 10.3086C62.3076 10.0508 62.8154 9.92188 63.4014 9.92188C63.9873 9.92188 64.4951 10.0508 64.9248 10.3086C65.3545 10.5664 65.6865 10.9284 65.9209 11.3945C66.1579 11.8607 66.2764 12.4036 66.2764 13.0234C66.2764 13.6432 66.1579 14.1849 65.9209 14.6484C65.6865 15.112 65.3545 15.4727 64.9248 15.7305C64.4951 15.9883 63.9873 16.1172 63.4014 16.1172ZM63.4092 14.9844C63.7269 14.9844 63.9925 14.8971 64.2061 14.7227C64.4196 14.5456 64.5785 14.3086 64.6826 14.0117C64.7894 13.7148 64.8428 13.3841 64.8428 13.0195C64.8428 12.6523 64.7894 12.3203 64.6826 12.0234C64.5785 11.724 64.4196 11.4857 64.2061 11.3086C63.9925 11.1315 63.7269 11.043 63.4092 11.043C63.0837 11.043 62.8128 11.1315 62.5967 11.3086C62.3831 11.4857 62.223 11.724 62.1162 12.0234C62.012 12.3203 61.96 12.6523 61.96 13.0195C61.96 13.3841 62.012 13.7148 62.1162 14.0117C62.223 14.3086 62.3831 14.5456 62.5967 14.7227C62.8128 14.8971 63.0837 14.9844 63.4092 14.9844ZM70.0938 16.1172C69.5078 16.1172 69 15.9883 68.5703 15.7305C68.1406 15.4727 67.8073 15.112 67.5703 14.6484C67.3359 14.1849 67.2188 13.6432 67.2188 13.0234C67.2188 12.4036 67.3359 11.8607 67.5703 11.3945C67.8073 10.9284 68.1406 10.5664 68.5703 10.3086C69 10.0508 69.5078 9.92188 70.0938 9.92188C70.6797 9.92188 71.1875 10.0508 71.6172 10.3086C72.0469 10.5664 72.3789 10.9284 72.6133 11.3945C72.8503 11.8607 72.9688 12.4036 72.9688 13.0234C72.9688 13.6432 72.8503 14.1849 72.6133 14.6484C72.3789 15.112 72.0469 15.4727 71.6172 15.7305C71.1875 15.9883 70.6797 16.1172 70.0938 16.1172ZM70.1016 14.9844C70.4193 14.9844 70.6849 14.8971 70.8984 14.7227C71.112 14.5456 71.2708 14.3086 71.375 14.0117C71.4818 13.7148 71.5352 13.3841 71.5352 13.0195C71.5352 12.6523 71.4818 12.3203 71.375 12.0234C71.2708 11.724 71.112 11.4857 70.8984 11.3086C70.6849 11.1315 70.4193 11.043 70.1016 11.043C69.776 11.043 69.5052 11.1315 69.2891 11.3086C69.0755 11.4857 68.9154 11.724 68.8086 12.0234C68.7044 12.3203 68.6523 12.6523 68.6523 13.0195C68.6523 13.3841 68.7044 13.7148 68.8086 14.0117C68.9154 14.3086 69.0755 14.5456 69.2891 14.7227C69.5052 14.8971 69.776 14.9844 70.1016 14.9844ZM75.583 12.4844V16H74.1689V10H75.5205V11.0195H75.5908C75.7288 10.6836 75.9489 10.4167 76.251 10.2187C76.5557 10.0208 76.932 9.92188 77.3799 9.92188C77.7939 9.92188 78.1546 10.0104 78.4619 10.1875C78.7718 10.3646 79.0114 10.6211 79.1807 10.957C79.3525 11.293 79.4372 11.7005 79.4346 12.1797V16H78.0205V12.3984C78.0205 11.9974 77.9163 11.6836 77.708 11.457C77.5023 11.2305 77.2171 11.1172 76.8525 11.1172C76.6051 11.1172 76.3851 11.1719 76.1924 11.2812C76.0023 11.388 75.8525 11.543 75.7432 11.7461C75.6364 11.9492 75.583 12.1953 75.583 12.4844Z" fill="url(#paint1_linear_0_1)"/>
<defs>
<linearGradient id="paint0_linear_0_1" x1="9" y1="73" x2="101" y2="73" gradientUnits="userSpaceOnUse">
<stop stop-color="#B06FF5"/>
<stop offset="0.5" stop-color="#FF71AD"/>
<stop offset="1" stop-color="#FFA571"/>
</linearGradient>
<linearGradient id="paint1_linear_0_1" x1="9" y1="12.5" x2="83" y2="12.5" gradientUnits="userSpaceOnUse">
<stop stop-color="#8C66DC"/>
<stop offset="0.505" stop-color="#FF71AD"/>
<stop offset="1" stop-color="#FFA571"/>
</linearGradient>
</defs>
</svg>
